<svg width="23" height="16" viewBox="0 0 23 16" fill="none" xmlns="http://www.w3.org/2000/svg">
<path d="M21.1766 6.58826H1.41177C0.632078 6.58826 0 7.22033 0 8.00003C0 8.77973 0.632078 9.4118 1.41177 9.4118H21.1766C21.9563 9.4118 22.5884 8.77973 22.5884 8.00003C22.5884 7.22033 21.9563 6.58826 21.1766 6.58826Z" fill="white"/>
<path d="M1.41177 2.82355H21.1766C21.9563 2.82355 22.5884 2.19147 22.5884 1.41177C22.5884 0.632078 21.9563 0 21.1766 0H1.41177C0.632078 0 0 0.632078 0 1.41177C0 2.19147 0.632078 2.82355 1.41177 2.82355Z" fill="white"/>
<path d="M21.1766 13.1764H1.41177C0.632078 13.1764 0 13.8085 0 14.5882C0 15.3679 0.632078 15.9999 1.41177 15.9999H21.1766C21.9563 15.9999 22.5884 15.3679 22.5884 14.5882C22.5884 13.8085 21.9563 13.1764 21.1766 13.1764Z" fill="white"/>
</svg>
